<?xml version="1.0" encoding="utf-8"?>
<!-- Generator: Adobe Illustrator 23.0.4, SVG Export Plug-In . SVG Version: 6.00 Build 0)  -->
<svg version="1.1" id="Layer_1" 
    xmlns="http://www.w3.org/2000/svg" 
    xmlns:xlink="http://www.w3.org/1999/xlink" x="0px" y="0px" viewBox="0 0 792 504.24" style="enable-background:new 0 0 792 504.24;" xml:space="preserve">
    <style type="text/css">
	.Arched_x0020_Green{fill:url(#SVGID_1_);stroke:#FFFFFF;stroke-width:0.25;stroke-miterlimit:1;}
	.st0{fill:#F8971D;}
	.st1{fill:#97B977;}
	.st2{fill:#5E9732;}
    </style>
    <linearGradient id="SVGID_1_" gradientUnits="userSpaceOnUse" x1="0" y1="575.1993" x2="0.7071" y2="574.4922">
        <stop offset="0" style="stop-color:#20AC4B"/>
        <stop offset="0.9831" style="stop-color:#19361A"/>
    </linearGradient>
    <g>
        <path class="st0" d="M682.84,77.67h-38.43c-36.21,0-65.56,29.35-65.56,65.56h38.42C653.48,143.23,682.84,113.88,682.84,77.67"/>
        <path class="st0" d="M581.15,152.31c-84.66,0-153.3,68.65-153.3,153.3h33.9c0-65.92,53.45-119.39,119.4-119.39
		c65.92,0,119.42,53.48,119.42,119.39h33.89C734.46,220.96,665.81,152.31,581.15,152.31"/>
        <path class="st1" d="M385.09,152.31c-84.69,0-153.32,68.65-153.32,153.3h33.92c0-65.92,53.46-119.39,119.39-119.39
		c65.93,0,119.39,53.48,119.39,119.39h33.92C538.4,220.96,469.75,152.31,385.09,152.31"/>
        <path class="st1" d="M340.63,121.38h4.03v30.63c6.64-1.67,13.45-2.92,20.39-3.76v-26.86h9.04v26c3.62-0.24,7.29-0.4,10.99-0.4
		c3.66,0,7.27,0.16,10.87,0.4v-26h8.45v26.77c6.93,0.82,13.73,2.05,20.38,3.7v-30.47h4.37c6.03,0,10.93-4.9,10.93-10.94
		c0-6.04-4.9-10.92-10.93-10.92h-4.37V97.7c0-18.42-12.46-33.88-29.38-38.56V28.6c0-6.04-4.89-10.92-10.92-10.92
		c-6.04,0-10.94,4.88-10.94,10.92v30.67c-16.66,4.85-28.89,20.19-28.89,38.43v1.82h-4.03c-6.04,0-10.92,4.89-10.92,10.92
		C329.71,116.48,334.59,121.38,340.63,121.38 M365.06,98.86c0-6.71,3.35-12.6,8.49-16.16c0.35-0.24,0.74-0.43,1.1-0.65
		c0.62-0.37,1.24-0.73,1.9-1.03c0.42-0.2,0.86-0.36,1.29-0.53c0.7-0.27,1.43-0.5,2.16-0.68c0.38-0.1,0.77-0.2,1.17-0.27
		c1.16-0.22,2.35-0.37,3.56-0.37c1.2,0,2.36,0.15,3.5,0.36c0.4,0.07,0.77,0.16,1.17,0.26c0.73,0.17,1.43,0.41,2.12,0.66
		c0.43,0.15,0.87,0.3,1.28,0.49c0.87,0.4,1.71,0.85,2.51,1.36c0.03,0.03,0.07,0.04,0.1,0.06c5.41,3.51,9,9.56,9,16.48v0.66h-39.35
		V98.86z"/>
        <path class="st2" d="M187.56,152.31c-84.66,0-153.3,68.65-153.3,153.3H60.2c0.13,0,0.25,0.05,0.39,0.05h98.64
		c9.45,0,17.12-7.69,17.12-17.15c0-4.15-1.53-7.91-3.99-10.87l18.7-18.93c8.72,3.42,22.16-0.88,33.04-11.43
		c13.08-12.71,17.38-29.5,9.59-37.53c-7.8-8.02-24.7-4.22-37.79,8.49c-11.04,10.74-15.73,24.33-12.24,33.16l-22.54,20.16
		c-0.62-0.06-1.23-0.19-1.88-0.19H73.21c14.73-49.23,60.33-85.15,114.35-85.15c65.95,0,119.39,53.47,119.39,119.39h33.91
		C340.87,220.96,272.22,152.31,187.56,152.31 M190.65,237.04c0.48,1.5,1.22,2.84,2.3,3.95c5.7,5.89,18.13,3.08,27.73-6.23
		c4.73-4.62,7.91-9.94,9.21-14.88c2.01,6.48-1.53,16.04-9.33,23.6c-9.61,9.34-22.02,12.12-27.74,6.23
		C189.93,246.74,189.31,242.1,190.65,237.04"/>
        <path class="st2" d="M187.18,143.48c14.86,0,26.9-12.06,26.9-26.9V85.63c0-14.88-12.04-26.9-26.9-26.9
		c-14.84,0-26.92,12.03-26.92,26.9v30.95C160.27,131.43,172.34,143.48,187.18,143.48"/>
        <path class="st2" d="M21.85,367.18v-0.11c0-10.57,7.9-19.25,19.19-19.25c6.86,0,11.01,2.39,14.57,5.8l-4.22,4.84
		c-2.97-2.76-6.15-4.64-10.39-4.64c-7.14,0-12.28,5.87-12.28,13.15v0.1c0,7.29,5.14,13.25,12.28,13.25c4.56,0,7.48-1.87,10.68-4.84
		l4.2,4.24c-3.88,4.05-8.14,6.59-15.11,6.59C29.94,386.31,21.85,377.87,21.85,367.18"/>
        <path class="st2" d="M114.69,370.89l-6.45-14.88l-6.38,14.88H114.69z M105.34,348.2h6.06l16.38,37.49h-6.91l-3.79-8.99H99.48
		l-3.83,8.99h-6.71L105.34,348.2z"/>
        <path class="st2" d="M177.69,367.82c4.96,0,8.04-2.77,8.04-6.66v-0.1c0-4.35-3.12-6.64-8.04-6.64h-7.61v13.4H177.69z
		 M163.57,348.46h14.68c8.66,0,14.15,4.95,14.15,12.43v0.12c0,8.35-6.71,12.71-14.89,12.71h-7.41v11.97h-6.52V348.46z"/>
        <rect x="228.86" y="348.46" class="st2" width="6.54" height="37.23"/>
        <polygon class="st2" points="283.93,354.53 272.12,354.53 272.12,348.46 302.33,348.46 302.33,354.53 290.53,354.53 290.53,385.69 
		283.93,385.69 	"/>
        <path class="st2" d="M356.4,370.89l-6.43-14.88l-6.37,14.88H356.4z M347.04,348.2h6.07l16.38,37.49h-6.9l-3.78-8.99h-17.63
		l-3.81,8.99h-6.68L347.04,348.2z"/>
        <polygon class="st2" points="405.29,348.46 411.82,348.46 411.82,379.72 431.4,379.72 431.4,385.69 405.29,385.69 	"/>
        <path class="st2" d="M535.55,370.89l-6.45-14.88l-6.39,14.88H535.55z M526.19,348.2h6.04l16.37,37.49h-6.9l-3.79-8.99h-17.58
		l-3.83,8.99h-6.69L526.19,348.2z"/>
        <path class="st2" d="M600.53,366.92c4.68,0,7.67-2.46,7.67-6.23v-0.1c0-3.98-2.89-6.16-7.72-6.16h-9.53v12.49H600.53z
		 M584.41,348.46h16.6c4.67,0,8.33,1.38,10.74,3.72c1.96,2.01,3.08,4.78,3.08,8.04v0.1c0,6.12-3.66,9.79-8.87,11.27l10.04,14.1
		h-7.71l-9.12-12.98h-0.14h-8.08v12.98h-6.53V348.46z"/>
        <polygon class="st2" points="652.27,348.46 679.88,348.46 679.88,354.32 658.79,354.32 658.79,364 677.47,364 677.47,369.84 
		658.79,369.84 658.79,379.83 680.13,379.83 680.13,385.69 652.27,385.69 	"/>
        <path class="st2" d="M739.86,370.89l-6.43-14.88l-6.4,14.88H739.86z M730.51,348.2h6.05l16.39,37.49h-6.92l-3.78-8.99h-17.62
		l-3.81,8.99h-6.7L730.51,348.2z"/>
        <polygon class="st2" points="21.74,403.16 82.79,403.16 82.79,416.28 36.14,416.28 36.14,438.64 77.51,438.64 77.51,451.77 
		36.14,451.77 36.14,485.15 21.74,485.15 	"/>
        <path class="st2" d="M162.19,444.39v-0.24c0-15.92-11.6-29.17-27.88-29.17c-16.29,0-27.65,13-27.65,28.95v0.22
		c0,15.95,11.6,29.18,27.89,29.18C150.82,473.33,162.19,460.31,162.19,444.39 M91.55,444.39v-0.24c0-23.07,17.8-42.4,42.99-42.4
		c25.18,0,42.75,19.09,42.75,42.18v0.22c0,23.08-17.8,42.41-42.99,42.41C109.13,486.56,91.55,467.47,91.55,444.39"/>
        <path class="st2" d="M259.03,444.39v-0.24c0-15.92-11.6-29.17-27.88-29.17c-16.28,0-27.64,13-27.64,28.95v0.22
		c0,15.95,11.59,29.18,27.86,29.18C247.67,473.33,259.03,460.31,259.03,444.39 M188.4,444.39v-0.24c0-23.07,17.83-42.4,42.98-42.4
		c25.2,0,42.78,19.09,42.78,42.18v0.22c0,23.08-17.82,42.41-43,42.41C205.97,486.56,188.4,467.47,188.4,444.39"/>
        <path class="st2" d="M319.47,472.03c17.22,0,28.48-11.6,28.48-27.64v-0.24c0-16.05-11.26-27.88-28.48-27.88h-16.17v55.75H319.47z
		 M288.9,403.16h30.57c25.76,0,43.59,17.69,43.59,40.76v0.23c0,23.08-17.82,40.99-43.59,40.99H288.9V403.16z"/>
        <path class="st0" d="M457.82,472.38c9.86,0,15.8-3.87,15.8-11.24v-0.23c0-6.93-5.51-11.02-16.83-11.02h-22.85v22.49H457.82z
		 M453.61,437.72c9.23,0,15.47-3.65,15.47-11.13v-0.23c0-6.45-5.18-10.43-14.43-10.43h-20.72v21.79H453.61z M419.75,403.16h36.8
		c9.35,0,16.74,2.57,21.42,7.27c3.63,3.62,5.52,8.07,5.52,13.57v0.23c0,9.84-5.63,15.12-11.71,18.27
		c9.6,3.28,16.27,8.79,16.27,19.93v0.24c0,14.64-12.06,22.47-30.33,22.47h-37.97V403.16z"/>
        <path class="st0" d="M551.3,452.59l-14.18-32.81l-14.05,32.81H551.3z M530.69,402.57h13.33l36.08,82.59h-15.22l-8.31-19.78h-38.78
		l-8.43,19.78h-14.75L530.69,402.57z"/>
        <polygon class="st0" points="591.45,403.16 604.82,403.16 648.73,459.85 648.73,403.16 662.89,403.16 662.89,485.15 650.83,485.15 
		605.63,426.81 605.63,485.15 591.45,485.15 	"/>
        <polygon class="st0" points="681.29,403.16 695.7,403.16 695.7,444.39 734.71,403.16 752.39,403.16 718.32,438.41 753.91,485.15 
		736.47,485.15 708.48,448.25 695.7,461.37 695.7,485.15 681.29,485.15 	"/>
        <g>
            <path class="st0" d="M756.35,463.21v-0.04c0-3.8,3.08-7,6.96-7c3.92,0,6.96,3.16,6.96,6.96v0.04c0,3.8-3.08,7-6.96,7
			C759.38,470.17,756.35,467.01,756.35,463.21z M769.46,463.17v-0.04c0-3.4-2.64-6.2-6.16-6.2c-3.48,0-6.16,2.84-6.16,6.24v0.04
			c0,3.4,2.64,6.2,6.16,6.2C766.78,469.41,769.46,466.57,769.46,463.17z M760.26,459.37h3.52c1.8,0,3.08,0.76,3.08,2.48
			c0,1.16-0.6,1.96-1.52,2.32l1.76,2.56h-2.4l-1.48-2.2h-0.88v2.2h-2.08V459.37z M763.66,462.89c0.72,0,1.12-0.36,1.12-0.88
			c0-0.56-0.4-0.88-1.12-0.88h-1.32v1.76H763.66z"/>
        </g>
    </g>
</svg>
